<?xml version="1.0" encoding="utf-8"?>
<!-- Generator: Adobe Illustrator 26.4.0, SVG Export Plug-In . SVG Version: 6.00 Build 0)  -->
<svg version="1.1" id="Calque_1" xmlns="http://www.w3.org/2000/svg" xmlns:xlink="http://www.w3.org/1999/xlink" x="0px" y="0px"
	 viewBox="0 0 1400 800" style="enable-background:new 0 0 1400 800;" xml:space="preserve">
<style type="text/css">
	.st0{fill:#43B8B1;stroke:#000000;stroke-miterlimit:10;}
	.st1{fill-rule:evenodd;clip-rule:evenodd;fill:#FFFFFF;}
</style>
<rect y="0.87" class="st0" width="1400" height="800"/>
<path class="st1" d="M617.3,449.93l-2.79-13v-77.49H598.4v35.35c-4.85-5.59-11.51-8.86-19.38-8.86c-16.11,0-28.59,13.24-28.59,32.67
	c0,19.44,12.47,32.68,28.59,32.68c7.99,0,14.9-3.41,19.74-9.24l1.69,7.9H617.3L617.3,449.93z M927.96,406.08l7.63-17.13
	c-3.52-2.19-7.63-3.16-11.63-3.16c-7.27,0-13.32,3.27-17.2,9.36l-1.7-7.9h-16.59l2.66,12.27v50.4h16.1v-39.96
	c2.18-4.13,6.3-6.68,11.63-6.68C922.15,403.28,925.18,404.13,927.96,406.08L927.96,406.08z M949.89,418.59
	c0-9.72,6.91-15.78,16.23-15.78c9.45,0,16.24,6.07,16.24,15.78c0,9.6-6.79,15.79-16.24,15.79
	C956.79,434.38,949.89,428.19,949.89,418.59L949.89,418.59z M566.06,418.59c0-9.72,6.9-15.78,16.23-15.78
	c9.45,0,16.23,6.07,16.23,15.78c0,9.6-6.78,15.79-16.23,15.79C572.96,434.38,566.06,428.19,566.06,418.59L566.06,418.59z
	 M1037.46,434.38c-9.32,0-16.23-6.19-16.23-15.79c0-9.72,6.9-15.79,16.23-15.79c9.45,0,16.23,6.07,16.23,15.79
	C1053.68,428.19,1046.9,434.38,1037.46,434.38L1037.46,434.38z M671.92,412.88h-31c1.82-7.16,7.26-11.05,15.5-11.05
	C664.77,401.83,670.22,405.72,671.92,412.88z M864.62,412.88h-31c1.81-7.16,7.26-11.05,15.5-11.05
	C857.47,401.83,862.93,405.72,864.62,412.88z M796.43,449.93l16.84-62.68h-17.56l-12.35,50.77L771,387.25h-17.32l16.84,62.67
	L796.43,449.93L796.43,449.93z M728.97,449.93h16.1v-62.69h-16.1L728.97,449.93L728.97,449.93z M684.08,443.93l-6.17-13.84
	c-5.82,3.04-12.24,4.86-18.78,4.86c-8.47,0-14.41-3.28-16.96-9.36h45.3c0.49-2.3,0.73-4.61,0.73-7.41
	c0-19.44-13.44-32.43-31.49-32.43c-18.17,0-31.49,13.12-31.49,32.68c0,19.92,13.2,32.67,33.67,32.67
	C667.85,451.09,676.69,448.66,684.08,443.93L684.08,443.93z M1037.46,385.92c-18.29,0-31.85,13.24-31.85,32.67
	c0,19.44,13.57,32.68,31.85,32.68c18.29,0,31.86-13.24,31.86-32.67C1069.32,399.16,1055.75,385.92,1037.46,385.92L1037.46,385.92z
	 M876.49,444.1l-6.18-13.85c-5.82,3.04-12.24,4.86-18.78,4.86c-8.48,0-14.41-3.27-16.96-9.36h45.3c0.49-2.3,0.72-4.61,0.72-7.4
	c0-19.44-13.44-32.43-31.49-32.43c-18.17,0-31.49,13.12-31.49,32.68c0,19.92,13.2,32.67,33.67,32.67
	C860.26,451.27,869.1,448.84,876.49,444.1L876.49,444.1z M997.97,418.59c0-19.43-13.57-32.67-31.85-32.67
	c-18.29,0-31.85,13.24-31.85,32.67c0,19.44,13.57,32.68,31.85,32.68C984.41,451.27,997.97,438.03,997.97,418.59L997.97,418.59z
	 M714.55,449.93v-90.5h-16.11v90.49L714.55,449.93L714.55,449.93z M747.13,368.42c0-5.83-4.36-10.2-10.05-10.2
	c-5.81,0-10.17,4.37-10.17,10.2s4.36,10.2,10.17,10.2C742.77,378.62,747.13,374.25,747.13,368.42z M451.12,389.24l-15.73-73.22
	l-49.32,10.38l15.72,73.22l-71.11,14.95l12.56,58.49l125.05,26.3l28.59-63.55l13.61-128.19l-50.15-5.22L451.12,389.24z
	 M411.22,429.31c-3.61-1.19-5.21-5.51-3.85-10.73c1.02-3.88,5.82-4.46,8.22-4.5c0.91-0.01,1.81,0.17,2.63,0.54
	c1.7,0.76,4.57,2.38,5.16,4.86c0.84,3.57,0.03,6.57-2.55,8.9C418.25,430.72,414.85,430.5,411.22,429.31L411.22,429.31z
	 M445.4,433.71c-3.26-1.58-3.24-5.61-2.88-8.06c0.19-1.34,0.73-2.6,1.58-3.66c1.16-1.46,3.11-3.37,5.36-3.42
	c3.66-0.1,6.8,1.53,8.58,4.46c1.78,2.92,0.89,6.15-0.98,9.38C455.16,435.63,450.24,436.05,445.4,433.71L445.4,433.71z"/>
</svg>
